<svg width="120" height="89" viewBox="0 0 120 89" fill="none" xmlns="http://www.w3.org/2000/svg">
<path d="M107.349 12.3931H12.4569C10.5993 12.3931 9.09338 13.899 9.09338 15.7566V75.8628C9.09338 77.7204 10.5993 79.2263 12.4569 79.2263H107.349C109.207 79.2263 110.713 77.7204 110.713 75.8628V15.7566C110.713 13.899 109.207 12.3931 107.349 12.3931Z" fill="white" stroke="#010101" stroke-width="2.5" stroke-miterlimit="10"/>
<path d="M1.49207 79.2887H118.323V84.276C118.323 86.1317 116.815 87.6395 114.959 87.6395H4.86442C3.00869 87.6395 1.501 86.1317 1.501 84.276V79.2887H1.49207Z" fill="#9b87f5" stroke="#010101" stroke-width="2.5" stroke-miterlimit="10"/>
<path d="M59.5016 13.2852V78.8247" stroke="#010101" stroke-width="2.5" stroke-miterlimit="10"/>
<path d="M9.50378 46.5903H110.998" stroke="#010101" stroke-width="2.5" stroke-miterlimit="10"/>
<path d="M84.7414 65.219C90.487 65.219 95.1621 69.8851 95.1621 75.6397V79.2084H74.3296V75.6397C74.3296 69.8941 78.9957 65.219 84.7503 65.219H84.7414Z" fill="white" stroke="#010101" stroke-width="2.5" stroke-miterlimit="10"/>
<path d="M84.7414 62.2659C87.4317 62.2659 89.6127 60.085 89.6127 57.3946C89.6127 54.7043 87.4317 52.5233 84.7414 52.5233C82.051 52.5233 79.8701 54.7043 79.8701 57.3946C79.8701 60.085 82.051 62.2659 84.7414 62.2659Z" fill="white" stroke="#010101" stroke-width="2.5" stroke-miterlimit="10"/>
<path d="M35.0113 65.219C40.7569 65.219 45.432 69.8851 45.432 75.6397V79.2084H24.5995V75.6397C24.5995 69.8941 29.2656 65.219 35.0202 65.219H35.0113Z" fill="#9b87f5" stroke="#010101" stroke-width="2.5" stroke-miterlimit="10"/>
<path d="M35.0113 62.2659C37.7016 62.2659 39.8826 60.085 39.8826 57.3946C39.8826 54.7043 37.7016 52.5233 35.0113 52.5233C32.3209 52.5233 30.14 54.7043 30.14 57.3946C30.14 60.085 32.3209 62.2659 35.0113 62.2659Z" stroke="#010101" stroke-width="2.5" stroke-miterlimit="10"/>
<path d="M83.644 32.6544C89.3896 32.6544 94.0647 37.3205 94.0647 43.0751V46.6438H73.2322V43.0751C73.2322 37.3295 77.8983 32.6544 83.6529 32.6544H83.644Z" fill="#9b87f5" stroke="#010101" stroke-width="2.5" stroke-miterlimit="10"/>
<path d="M83.644 29.7014C86.3343 29.7014 88.5152 27.5204 88.5152 24.8301C88.5152 22.1397 86.3343 19.9587 83.644 19.9587C80.9536 19.9587 78.7727 22.1397 78.7727 24.8301C78.7727 27.5204 80.9536 29.7014 83.644 29.7014Z" stroke="#010101" stroke-width="2.5" stroke-miterlimit="10"/>
<path d="M34.7881 32.6544C40.5338 32.6544 45.2088 37.3205 45.2088 43.0751V46.6438H24.3763V43.0751C24.3763 37.3295 29.0425 32.6544 34.7971 32.6544H34.7881Z" fill="white" stroke="#010101" stroke-width="2.5" stroke-miterlimit="10"/>
<path d="M34.7881 29.7014C37.4785 29.7014 39.6594 27.5204 39.6594 24.8301C39.6594 22.1397 37.4785 19.9587 34.7881 19.9587C32.0978 19.9587 29.9169 22.1397 29.9169 24.8301C29.9169 27.5204 32.0978 29.7014 34.7881 29.7014Z" fill="white" stroke="#010101" stroke-width="2.5" stroke-miterlimit="10"/>
<path d="M59.4659 1.88318H59.1179C57.4673 1.88318 56.1292 3.22129 56.1292 4.87196V4.88089C56.1292 6.53156 57.4673 7.8697 59.1179 7.8697H59.4659C61.1166 7.8697 62.4547 6.53156 62.4547 4.88089V4.87196C62.4547 3.22129 61.1166 1.88318 59.4659 1.88318Z" fill="white" stroke="#010101" stroke-width="2.5" stroke-miterlimit="10"/>
</svg>
