<svg width="112" height="111" viewBox="0 0 112 111" fill="none" xmlns="http://www.w3.org/2000/svg">
<path d="M31.1287 61.4053L23.3221 69.7918L23.1259 71.3531L39.3279 88.0726L41.0141 88.144L49.472 80.5961L31.1287 61.4053Z" fill="#EDECEC"/>
<path d="M31.905 60.4417L23.6166 68.7568C22.5282 69.8453 22.5282 71.6118 23.6166 72.7003L38.5428 87.5818C39.6313 88.6703 41.3978 88.6703 42.4862 87.5818L50.7122 79.3292" stroke="#010101" stroke-width="2.5" stroke-miterlimit="10"/>
<path d="M39.2208 37.0666C39.2208 37.0666 27.3637 31.892 19.0397 36.5581C19.0397 36.5581 10.9655 43.3654 10.3409 45.8903C10.3409 45.8903 11.5989 48.0315 13.7491 49.6731L31.0306 61.6551C31.0306 61.6551 28.6306 46.265 39.2297 37.0666H39.2208Z" fill="white"/>
<path d="M79.6991 67.9539C56.8593 90.7937 49.8289 81.9255 40.0149 72.1204C30.2098 62.3153 21.3416 55.276 44.1814 32.4362C67.0212 9.59641 102.057 -2.20714 108.195 3.93998C115.431 11.1756 102.539 45.1141 79.6991 67.9539Z" fill="#9b87f5"/>
<path d="M51.2742 81.6132L65.3617 101.759C65.3617 101.759 77.1028 93.3722 77.0136 84.602C77.0136 84.602 76.4961 74.4223 74.6671 72.3078C74.6671 72.3078 62.4086 84.0043 51.2742 81.6043V81.6132Z" fill="white" stroke="url(#paint0_linear_3_463)" stroke-width="2.5" stroke-miterlimit="10"/>
<path d="M84.2135 27.1188C78.798 21.7122 70.0189 21.7301 64.6212 27.1545C59.2146 32.5701 59.2325 41.3491 64.6569 46.7468C70.0725 52.1534 78.8515 52.1356 84.2492 46.7111C89.6558 41.2956 89.638 32.5165 84.2135 27.1188ZM79.2262 41.4383C76.737 43.9364 72.6955 43.9454 70.1973 41.4562C67.6992 38.967 67.6903 34.9254 70.1795 32.4273C72.6687 29.9292 76.7103 29.9203 79.2084 32.4095C81.7065 34.8987 81.7154 38.9402 79.2262 41.4383Z" fill="#EDECEC"/>
<path d="M82.6521 6.80388C82.6521 6.80388 99.3002 -1.02054 106.839 2.67309C106.839 2.67309 110.113 3.10133 110.113 9.36444C110.113 9.36444 107.981 23.5947 104.707 29.8578L82.6521 6.80388Z" fill="#EDECEC"/>
<path d="M80.9481 6.39349L105.091 30.4467" stroke="#010101" stroke-width="2.5" stroke-miterlimit="10"/>
<path d="M74.8902 71.7278C74.8902 71.7278 77.4864 77.982 77.0225 84.602C76.737 88.5901 74.9527 92.3283 72.1244 95.1654L67.0747 100.233C66.0576 101.259 64.3625 101.107 63.5327 99.9207L50.3285 80.8995" stroke="#010101" stroke-width="2.5" stroke-miterlimit="10"/>
<path d="M39.3904 36.237C39.3904 36.237 33.1362 33.6407 26.5162 34.1046C22.5282 34.3901 18.7899 36.1745 15.9528 39.0027L10.8852 44.0525C9.8592 45.0695 10.0109 46.7647 11.1975 47.5944L30.2188 60.7987" stroke="#010101" stroke-width="2.5" stroke-miterlimit="10"/>
<path d="M24.4999 99.778C19.9855 104.31 5.50539 111.599 2.61472 108.718C-0.275943 105.836 6.95964 91.338 11.483 86.8057C16.0064 82.2734 21.868 83.6206 24.7676 86.5024C27.6672 89.3841 29.0233 95.2546 24.5088 99.7869L24.4999 99.778Z" fill="#9b87f5" stroke="#010101" stroke-width="2.5" stroke-miterlimit="10"/>
<path d="M74.3995 50.7438C82.0517 50.7438 88.2551 44.5404 88.2551 36.8882C88.2551 29.236 82.0517 23.0327 74.3995 23.0327C66.7473 23.0327 60.5439 29.236 60.5439 36.8882C60.5439 44.5404 66.7473 50.7438 74.3995 50.7438Z" stroke="#010101" stroke-width="2.5" stroke-miterlimit="10"/>
<path d="M74.6672 43.2673C78.1902 43.2673 81.0463 40.4113 81.0463 36.8882C81.0463 33.3651 78.1902 30.5091 74.6672 30.5091C71.1441 30.5091 68.2881 33.3651 68.2881 36.8882C68.2881 40.4113 71.1441 43.2673 74.6672 43.2673Z" fill="white" stroke="#010101" stroke-width="2.5" stroke-miterlimit="10"/>
<path d="M79.6009 67.1242C56.7611 89.964 49.7307 81.0958 39.9167 71.2907C30.1117 61.4856 21.2434 54.4463 44.0832 31.6065C66.9231 8.76669 101.959 -3.03685 108.097 3.11027C115.333 10.3459 102.441 44.2844 79.6009 67.1242Z" stroke="#010101" stroke-width="2.5" stroke-miterlimit="10"/>
<defs>
<linearGradient id="paint0_linear_3_463" x1="50.2571" y1="87.0288" x2="77.4597" y2="87.0288" gradientUnits="userSpaceOnUse">
<stop stop-color="white"/>
<stop offset="1" stop-color="#010101"/>
</linearGradient>
</defs>
</svg>
