<svg width="69" height="101" viewBox="0 0 69 101" fill="none" xmlns="http://www.w3.org/2000/svg">
<path d="M46.2206 82.3884H23.586C21.7776 82.3884 20.3116 83.8544 20.3116 85.6627C20.3116 87.4711 21.7776 88.937 23.586 88.937H46.2206C48.0289 88.937 49.4949 87.4711 49.4949 85.6627C49.4949 83.8544 48.0289 82.3884 46.2206 82.3884Z" fill="#9b87f5" stroke="#020202" stroke-width="2.5" stroke-miterlimit="10"/>
<path d="M44.8823 93.8618H25.2186C23.7207 93.8618 22.5065 95.0761 22.5065 96.574V96.583C22.5065 98.0809 23.7207 99.2952 25.2186 99.2952H44.8823C46.3802 99.2952 47.5946 98.0809 47.5946 96.583V96.574C47.5946 95.0761 46.3802 93.8618 44.8823 93.8618Z" fill="white" stroke="#242020" stroke-width="2.5" stroke-miterlimit="10"/>
<mask id="mask0_3_487" style="mask-type:luminance" maskUnits="userSpaceOnUse" x="0" y="0" width="35" height="79">
<path d="M34.551 0.227539H0.139526V78.7127H34.551V0.227539Z" fill="white"/>
</mask>
<g mask="url(#mask0_3_487)">
<path d="M34.9701 1.57476C34.9701 1.57476 14.1823 0.593367 4.17205 19.9537C4.17205 19.9537 -3.98245 37.0567 8.09767 53.687C8.09767 53.687 16.154 63.2333 18.1971 74.118C18.554 76.0005 20.1867 77.3744 22.1049 77.3744L34.9791 77.3566" fill="#EDECEC"/>
<path d="M34.9701 1.57476C34.9701 1.57476 14.1823 0.593367 4.17205 19.9537C4.17205 19.9537 -3.98245 37.0567 8.09767 53.687C8.09767 53.687 16.154 63.2333 18.1971 74.1179C18.554 76.0004 20.1867 77.3744 22.1049 77.3744L34.9791 77.3566" stroke="#010101" stroke-width="2.5" stroke-miterlimit="10"/>
</g>
<mask id="mask1_3_487" style="mask-type:luminance" maskUnits="userSpaceOnUse" x="34" y="0" width="35" height="79">
<path d="M68.9622 0.227551H34.5509V78.7127H68.9622V0.227551Z" fill="white"/>
</mask>
<g mask="url(#mask1_3_487)">
<path d="M34.1315 1.57476C34.1315 1.57476 54.9193 0.593371 64.9296 19.9537C64.9296 19.9537 73.0841 37.0568 61.004 53.687C61.004 53.687 52.9476 63.2333 50.9045 74.118C50.5477 76.0005 48.915 77.3744 46.9968 77.3744L34.1227 77.3566" fill="#EDECEC"/>
<path d="M34.1315 1.57476C34.1315 1.57476 54.9193 0.593371 64.9296 19.9537C64.9296 19.9537 73.0841 37.0568 61.004 53.687C61.004 53.687 52.9476 63.2334 50.9045 74.118C50.5477 76.0005 48.915 77.3744 46.9968 77.3744L34.1227 77.3566" stroke="#010101" stroke-width="2.5" stroke-miterlimit="10"/>
</g>
<path d="M27.574 76.3663C27.574 76.3663 29.3762 49.1458 21.8016 41.3303C21.2842 40.8039 21.7302 39.9118 22.4618 40.0099C26.4677 40.5452 33.9085 42.5615 34.7025 50.2165" stroke="#010101" stroke-width="2.5" stroke-miterlimit="10"/>
<path d="M41.947 76.3663C41.947 76.3663 40.4393 49.1458 48.0228 41.3303C48.5403 40.8039 48.0942 39.9118 47.3626 40.0099C43.3567 40.5452 35.916 42.5615 35.1219 50.2165" stroke="#010101" stroke-width="2.5" stroke-miterlimit="10"/>
</svg>
